<svg id="レイヤー_3" data-name="レイヤー 3" xmlns="http://www.w3.org/2000/svg" width="230px" height="40px" viewBox="0 0 228.63 38.46"><defs><style>.cls-1{fill:#231815;}.cls-2{fill:#00a5d5;}</style></defs><path d="M622.05,37.78h9.4c5.31,0,8.85-2.77,8.85-8s-3.54-8-8.85-8H617.33V45.41h4.72Zm0-11.48h9c2.65,0,4.42.81,4.42,3.51s-1.77,3.51-4.42,3.51h-9Z" transform="translate(-571.5 -13.67)"/><path d="M667.68,40.11l-4.3-2.46a7.23,7.23,0,0,1-6.87,3.84c-4.89,0-8.14-2.7-8.14-7.9s3.25-7.9,8.14-7.9a7.14,7.14,0,0,1,6.78,3.82L667.63,27a12.64,12.64,0,0,0-11.06-6c-8,0-13,4.7-13,12.56s5,12.56,12.79,12.56A12.77,12.77,0,0,0,667.68,40.11Z" transform="translate(-571.5 -13.67)"/><path d="M691.06,45.41h5.63L690.32,37a7.24,7.24,0,0,0,5.75-7.42c0-5.14-3.8-7.8-8.84-7.8H673V45.41h4.68v-8h7.46ZM677.65,32.92V26.3H687c2.48,0,4.31.68,4.31,3.31s-1.83,3.31-4.31,3.31Z" transform="translate(-571.5 -13.67)"/><path d="M717,22.69H703.38V46.07h2.45V37.52H717c4.69,0,7.82-2.74,7.82-7.42S721.72,22.69,717,22.69Zm-.18,12.22h-11V25.29h11c3.33,0,5.49,1.54,5.49,4.81S720.18,34.91,716.85,34.91Z" transform="translate(-571.5 -13.67)"/><path d="M737.16,22.69,725.93,46.07h2.71l3-6.28h13.76l3,6.28h2.77L739.9,22.69Zm-4.35,14.56,5.69-12,5.69,12Z" transform="translate(-571.5 -13.67)"/><path d="M765.12,33c-4.63-.42-8.32-1-8.32-3.79s4.09-4.07,7.59-4a10.67,10.67,0,0,1,8.07,3.31l1.85-1.8a14,14,0,0,0-10-4c-5.24,0-9.89,2.4-9.89,6.64,0,4.43,5,5.74,10.25,6.26s8.18,1.18,8.18,3.91S770.05,44,765.31,44a13.14,13.14,0,0,1-9.94-4.14l-1.66,2a16,16,0,0,0,11.46,4.62c6.39,0,10.06-3,10.06-7.19C775.23,34.88,771.09,33.57,765.12,33Z" transform="translate(-571.5 -13.67)"/><path d="M790,33c-4.62-.42-8.32-1-8.32-3.79s4.09-4.07,7.59-4a10.66,10.66,0,0,1,8.07,3.31l1.85-1.8a14,14,0,0,0-10-4c-5.24,0-9.89,2.4-9.89,6.64,0,4.43,5,5.74,10.25,6.26s8.18,1.18,8.18,3.91S795,44,790.22,44a13.15,13.15,0,0,1-10-4.14l-1.66,2a16,16,0,0,0,11.47,4.62c6.38,0,10-3,10-7.19C800.13,34.88,796,33.57,790,33Z" transform="translate(-571.5 -13.67)"/><path class="cls-1" d="M609.12,47.19l-6.07-6.08a16.85,16.85,0,1,0-30.39-12.52,37.75,37.75,0,0,0-.25,6.29V50.42a1.7,1.7,0,1,0,3.39,0V41.49A16.69,16.69,0,0,0,599,45.2L605,51.27a2.89,2.89,0,0,0,4.09,0A2.9,2.9,0,0,0,609.12,47.19ZM575.8,31.55v-.26a13.5,13.5,0,1,1,0,.26Z" transform="translate(-571.5 -13.67)"/><path class="cls-1" d="M589.27,40.49A9.12,9.12,0,1,1,596.67,26a1.7,1.7,0,0,1-.38,2.37,1.68,1.68,0,0,1-2.36-.38,5.74,5.74,0,1,0,0,6.71,1.7,1.7,0,0,1,2.75,2A9.18,9.18,0,0,1,589.27,40.49Z" transform="translate(-571.5 -13.67)"/><path class="cls-2" d="M591.88,31.37a2.6,2.6,0,1,1-2.6-2.6A2.6,2.6,0,0,1,591.88,31.37Z" transform="translate(-571.5 -13.67)"/><path class="cls-1" d="M576.7,16.27a2.6,2.6,0,1,1-2.6-2.6A2.6,2.6,0,0,1,576.7,16.27Z" transform="translate(-571.5 -13.67)"/></svg>
