<svg id="レイヤー_4" data-name="レイヤー 4" xmlns="http://www.w3.org/2000/svg" width="40px" height="40px" viewBox="0 0 38.46 38.46"><defs><style>.cls-1{fill:#231815;}.cls-2{fill:#00a5d5;}</style></defs><path class="cls-1" d="M642.69,136l-6.08-6.08a16.71,16.71,0,0,0,3.09-9.68,16.86,16.86,0,0,0-33.48-2.83,37.71,37.71,0,0,0-.25,6.29v15.54a1.7,1.7,0,0,0,3.4,0v-8.94A16.69,16.69,0,0,0,632.53,134l6.07,6.08a2.91,2.91,0,0,0,4.09,0A2.91,2.91,0,0,0,642.69,136Zm-33.32-15.63v-.26a13.49,13.49,0,1,1,0,.26Z" transform="translate(-605.07 -102.45)"/><path class="cls-1" d="M622.84,129.27a9.12,9.12,0,1,1,7.39-14.46,1.69,1.69,0,1,1-2.74,2,5.73,5.73,0,1,0,0,6.7,1.7,1.7,0,0,1,2.75,2A9.16,9.16,0,0,1,622.84,129.27Z" transform="translate(-605.07 -102.45)"/><path class="cls-2" d="M625.45,120.15a2.6,2.6,0,1,1-2.6-2.6A2.59,2.59,0,0,1,625.45,120.15Z" transform="translate(-605.07 -102.45)"/><path class="cls-1" d="M610.27,105.05a2.6,2.6,0,1,1-2.6-2.6A2.59,2.59,0,0,1,610.27,105.05Z" transform="translate(-605.07 -102.45)"/></svg>
